<svg width="108" height="68" viewBox="0 0 108 68" fill="none" xmlns="http://www.w3.org/2000/svg">
<path d="M52.1017 54.6261V66.8853H2.97193V57.1336L28.0476 33.451C30.71 30.9125 32.5055 28.7455 33.4343 26.9499C34.363 25.0925 34.8274 23.266 34.8274 21.4704C34.8274 18.87 33.9296 16.8887 32.134 15.5266C30.4004 14.1025 27.8309 13.3905 24.4256 13.3905C21.5775 13.3905 19.008 13.9477 16.7171 15.0622C14.4263 16.1148 12.5069 17.7246 10.959 19.8916L0 12.8332C2.53853 9.05641 6.03674 6.11544 10.4946 4.01031C14.9525 1.84328 20.0606 0.759766 25.8187 0.759766C30.6481 0.759766 34.8583 1.56466 38.4494 3.17446C42.1024 4.72234 44.9195 6.95129 46.9008 9.86131C48.944 12.7094 49.9656 16.0838 49.9656 19.9845C49.9656 23.5136 49.2227 26.8261 47.7367 29.9219C46.2507 33.0176 43.3717 36.5468 39.0995 40.5094L24.147 54.6261H52.1017Z" fill="black"/>
<path d="M80.5992 26.2998C89.7627 26.2998 96.5114 28.1263 100.846 31.7793C105.241 35.4323 107.439 40.3236 107.439 46.4533C107.439 50.4158 106.449 54.0379 104.468 57.3194C102.486 60.539 99.4524 63.1394 95.366 65.1207C91.3415 67.0401 86.3573 67.9998 80.4135 67.9998C75.8317 67.9998 71.3119 67.4116 66.854 66.2352C62.458 64.9969 58.7121 63.2632 55.6164 61.0343L61.5602 49.5181C64.0369 51.3755 66.885 52.8305 70.1046 53.8831C73.3242 54.8737 76.6366 55.3691 80.042 55.3691C83.8188 55.3691 86.7907 54.6261 88.9578 53.1401C91.1248 51.6541 92.2083 49.58 92.2083 46.9176C92.2083 44.1314 91.0629 42.0263 88.772 40.6023C86.5431 39.1782 82.6424 38.4662 77.07 38.4662H60.4458L63.7892 1.87424H103.446V13.9477H76.327L75.3054 26.2998H80.5992Z" fill="black"/>
</svg>
