<svg width="103" height="28" viewBox="0 0 103 28" fill="none" xmlns="http://www.w3.org/2000/svg">
<path d="M0.952148 7.25633H3.59327V13.4465H11.9018V7.25633H14.5429V21.8375H11.9018V15.7299H3.59327V21.8375H0.952148V7.25633Z" fill="black"/>
<path d="M25.9235 22.0026C24.4746 22.0026 23.1724 21.6816 22.0169 21.0397C20.8614 20.3978 19.9535 19.5174 19.2932 18.3986C18.6513 17.2614 18.3303 15.9775 18.3303 14.5469C18.3303 13.1163 18.6513 11.8416 19.2932 10.7228C19.9535 9.58565 20.8614 8.70528 22.0169 8.08168C23.1724 7.43974 24.4746 7.11877 25.9235 7.11877C27.3725 7.11877 28.6655 7.43974 29.8027 8.08168C30.9582 8.70528 31.8569 9.58565 32.4988 10.7228C33.1591 11.8416 33.4893 13.1163 33.4893 14.5469C33.4893 15.9775 33.1591 17.2614 32.4988 18.3986C31.8569 19.5174 30.9582 20.3978 29.8027 21.0397C28.6655 21.6816 27.3725 22.0026 25.9235 22.0026ZM25.9235 19.6916C26.8589 19.6916 27.6935 19.4807 28.4271 19.0588C29.1791 18.6187 29.766 18.0134 30.1878 17.2431C30.6097 16.4544 30.8206 15.5557 30.8206 14.5469C30.8206 13.5382 30.6097 12.6486 30.1878 11.8783C29.766 11.0896 29.1791 10.4844 28.4271 10.0625C27.6935 9.64068 26.8589 9.42975 25.9235 9.42975C24.9881 9.42975 24.1444 9.64068 23.3925 10.0625C22.6588 10.4844 22.0719 11.0896 21.6317 11.8783C21.2099 12.6486 20.9989 13.5382 20.9989 14.5469C20.9989 15.5557 21.2099 16.4544 21.6317 17.2431C22.0719 18.0134 22.6588 18.6187 23.3925 19.0588C24.1444 19.4807 24.9881 19.6916 25.9235 19.6916Z" fill="black"/>
<path d="M48.5119 7.25633V21.8375H46.1459V17.2156H41.9091H41.6065L38.4151 21.8375H35.5814L39.1304 16.8579C38.03 16.5278 37.1863 15.9867 36.5994 15.2347C36.0124 14.4644 35.719 13.5107 35.719 12.3735C35.719 10.7045 36.2876 9.43892 37.4247 8.57689C38.5619 7.69652 40.13 7.25633 42.1292 7.25633H48.5119ZM38.4151 12.456C38.4151 13.4281 38.7178 14.1526 39.323 14.6295C39.9466 15.088 40.8728 15.3173 42.1017 15.3173H46.1459V9.56731H42.2118C39.6807 9.56731 38.4151 10.5302 38.4151 12.456Z" fill="black"/>
<path d="M61.0932 7.75154C62.4504 7.75154 63.6609 8.05417 64.7247 8.65942C65.7885 9.26468 66.6138 10.1084 67.2008 11.1905C67.806 12.2543 68.1087 13.474 68.1087 14.8496C68.1087 16.2618 67.7877 17.5182 67.1457 18.6187C66.5221 19.7008 65.6326 20.5445 64.4771 21.1497C63.34 21.755 62.0377 22.0576 60.5704 22.0576C58.0944 22.0576 56.1777 21.2139 54.8205 19.5265C53.4816 17.8208 52.8121 15.4273 52.8121 12.346C52.8121 9.35639 53.4266 7.01789 54.6554 5.33051C55.8843 3.62478 57.7642 2.4968 60.2953 1.94657L66.9532 0.460938L67.3383 2.88197L61.2032 4.20253C59.2957 4.62437 57.8743 5.33968 56.9389 6.34844C56.0035 7.3572 55.4716 8.80615 55.3432 10.6953C55.9668 9.75989 56.7738 9.03542 57.7642 8.52187C58.7547 8.00831 59.8643 7.75154 61.0932 7.75154ZM60.6255 19.8567C61.5609 19.8567 62.3862 19.6458 63.1015 19.2239C63.8352 18.8021 64.4037 18.2243 64.8072 17.4907C65.2107 16.7387 65.4125 15.8858 65.4125 14.9321C65.4125 13.4831 64.9723 12.3185 64.0919 11.4381C63.2116 10.5577 62.0561 10.1175 60.6255 10.1175C59.1949 10.1175 58.0302 10.5577 57.1315 11.4381C56.2511 12.3185 55.8109 13.4831 55.8109 14.9321C55.8109 15.8858 56.0127 16.7387 56.4162 17.4907C56.838 18.2243 57.4158 18.8021 58.1494 19.2239C58.8831 19.6458 59.7084 19.8567 60.6255 19.8567Z" fill="black"/>
<path d="M79.6115 7.11877C81.0238 7.11877 82.2894 7.43057 83.4082 8.05417C84.527 8.67777 85.3982 9.54897 86.0218 10.6678C86.6637 11.7866 86.9847 13.0796 86.9847 14.5469C86.9847 16.0142 86.6637 17.3164 86.0218 18.4536C85.3982 19.5724 84.527 20.4436 83.4082 21.0672C82.2894 21.6908 81.0238 22.0026 79.6115 22.0026C78.5661 22.0026 77.6032 21.8008 76.7228 21.3973C75.8608 20.9938 75.1271 20.4069 74.5219 19.6366V27.1748H71.8808V7.25633H74.4118V9.56731C74.9988 8.7603 75.7416 8.15504 76.6403 7.75154C77.539 7.32969 78.5294 7.11877 79.6115 7.11877ZM79.3915 19.6916C80.3269 19.6916 81.1614 19.4807 81.895 19.0588C82.647 18.6187 83.2339 18.0134 83.6558 17.2431C84.096 16.4544 84.3161 15.5557 84.3161 14.5469C84.3161 13.5382 84.096 12.6486 83.6558 11.8783C83.2339 11.0896 82.647 10.4844 81.895 10.0625C81.1614 9.64068 80.3269 9.42975 79.3915 9.42975C78.4744 9.42975 77.6399 9.64985 76.8879 10.09C76.1542 10.5119 75.5673 11.108 75.1271 11.8783C74.7053 12.6486 74.4944 13.5382 74.4944 14.5469C74.4944 15.5557 74.7053 16.4544 75.1271 17.2431C75.549 18.0134 76.1359 18.6187 76.8879 19.0588C77.6399 19.4807 78.4744 19.6916 79.3915 19.6916Z" fill="black"/>
<path d="M102.031 7.25633V21.8375H99.6648V17.2156H95.428H95.1254L91.934 21.8375H89.1003L92.6493 16.8579C91.5488 16.5278 90.7051 15.9867 90.1182 15.2347C89.5313 14.4644 89.2378 13.5107 89.2378 12.3735C89.2378 10.7045 89.8064 9.43892 90.9436 8.57689C92.0807 7.69652 93.6489 7.25633 95.6481 7.25633H102.031ZM91.934 12.456C91.934 13.4281 92.2366 14.1526 92.8419 14.6295C93.4655 15.088 94.3917 15.3173 95.6206 15.3173H99.6648V9.56731H95.7306C93.1995 9.56731 91.934 10.5302 91.934 12.456Z" fill="black"/>
</svg>
